<svg width="134" height="71" viewBox="0 0 134 71" fill="none" xmlns="http://www.w3.org/2000/svg">
    <mask id="mask0_1_5" style="mask-type:luminance" maskUnits="userSpaceOnUse" x="0" y="0" width="134" height="71">
        <path d="M134 0H0V70.233H134V0Z" fill="white"/>
    </mask>
    <g mask="url(#mask0_1_5)">
        <path d="M28.1595 50.1667C28.7971 50.1667 29.4284 50.0371 30.0175 49.785C30.6066 49.533 31.1418 49.1635 31.5926 48.6976C32.0435 48.2319 32.4011 47.6789 32.6451 47.0702C32.8891 46.4615 33.0147 45.8092 33.0147 45.1504C33.0147 35.8369 36.5953 26.9048 42.9689 20.3191C49.3423 13.7334 57.9868 10.0337 67.0003 10.0337C76.0137 10.0337 84.6583 13.7334 91.0316 20.3191C97.4054 26.9048 100.986 35.8369 100.986 45.1504C100.998 46.4722 101.516 47.7353 102.425 48.6654C103.334 49.5954 104.561 50.1171 105.841 50.1171C107.12 50.1171 108.348 49.5954 109.257 48.6654C110.166 47.7353 110.683 46.4722 110.696 45.1504C110.696 39.2212 109.565 33.3501 107.37 27.8723C105.174 22.3945 101.955 17.4172 97.8978 13.2246C93.8399 9.03205 89.023 5.70633 83.7219 3.43735C78.4202 1.16835 72.7386 0.000518799 67.0003 0.000518799C61.2619 0.000518799 55.5803 1.16835 50.2787 3.43735C44.9774 5.70633 40.1604 9.03205 36.1029 13.2246C32.0454 17.4172 28.8268 22.3945 26.6309 27.8723C24.435 33.3501 23.3048 39.2212 23.3048 45.1504C23.3048 46.4808 23.8163 47.7567 24.7267 48.6975C25.6371 49.6382 26.872 50.1667 28.1595 50.1667Z" fill="url(#paint0_linear_1_5)"/>
        <path d="M129.145 60.1998H86.4047C89.5693 55.8647 91.2783 50.5809 91.273 45.1504C91.273 38.4979 88.7152 32.1178 84.1629 27.4138C79.6102 22.7097 73.4356 20.067 66.9974 20.067C60.5596 20.067 54.3851 22.7097 49.8323 27.4138C45.2798 32.1178 42.7223 38.4979 42.7223 45.1504C42.7223 46.4809 43.2338 47.757 44.1443 48.6978C45.0549 49.6386 46.2898 50.1672 47.5775 50.1672C48.8653 50.1672 50.1003 49.6386 51.0106 48.6978C51.9213 47.757 52.4327 46.4809 52.4327 45.1504C52.4327 42.1738 53.2867 39.264 54.8872 36.789C56.4877 34.3139 58.7624 32.3849 61.4238 31.2457C64.0853 30.1065 67.0139 29.8084 69.8392 30.3891C72.6645 30.9697 75.26 32.403 77.2967 34.5078C79.3339 36.6125 80.7211 39.2942 81.2834 42.2136C81.8451 45.133 81.5567 48.1591 80.4545 50.9089C79.3518 53.659 77.4853 56.0099 75.0899 57.6636C72.6945 59.3174 69.8784 60.1998 66.9979 60.1998H4.85526C4.21361 60.1933 3.57705 60.3181 2.98239 60.5675C2.38773 60.8164 1.84678 61.185 1.39078 61.6513C0.934784 62.118 0.572793 62.673 0.325755 63.285C0.0787157 63.897 -0.0484772 64.5536 -0.0484772 65.2167C-0.0484772 65.8793 0.0787157 66.5359 0.325755 67.1479C0.572793 67.7599 0.934784 68.3148 1.39078 68.7816C1.84678 69.2479 2.38773 69.6165 2.98239 69.8654C3.57705 70.1148 4.21361 70.2395 4.85526 70.233H129.145C130.424 70.22 131.647 69.6856 132.547 68.746C133.447 67.807 133.952 66.5384 133.952 65.2167C133.952 63.8945 133.447 62.6259 132.547 61.6868C131.647 60.7473 130.424 60.2129 129.145 60.1998Z" fill="url(#paint1_linear_1_5)"/>
    </g>
    <defs>
        <linearGradient id="paint0_linear_1_5" x1="23.3048" y1="25.0836" x2="110.696" y2="25.0836" gradientUnits="userSpaceOnUse">
            <stop stop-color="#DD1B60"/>
            <stop offset="0.243" stop-color="#DE1D5B"/>
            <stop offset="0.495" stop-color="#E2254F"/>
            <stop offset="0.751" stop-color="#EA313A"/>
            <stop offset="1" stop-color="#F4431F"/>
        </linearGradient>
        <linearGradient id="paint1_linear_1_5" x1="-0.0484772" y1="45.1501" x2="133.952" y2="45.1501" gradientUnits="userSpaceOnUse">
            <stop stop-color="#DD1B60"/>
            <stop offset="0.243" stop-color="#DE1D5B"/>
            <stop offset="0.495" stop-color="#E2254F"/>
            <stop offset="0.751" stop-color="#EA313A"/>
            <stop offset="1" stop-color="#F4431F"/>
        </linearGradient>
    </defs>
</svg>
